<?xml version="1.0" encoding="utf-8"?>
<!-- Generator: Adobe Illustrator 16.0.3, SVG Export Plug-In . SVG Version: 6.00 Build 0)  -->
<!DOCTYPE svg PUBLIC "-//W3C//DTD SVG 1.1//EN" "http://www.w3.org/Graphics/SVG/1.1/DTD/svg11.dtd">
<svg version="1.1" id="Layer_1" xmlns="http://www.w3.org/2000/svg" xmlns:xlink="http://www.w3.org/1999/xlink" x="0px" y="0px"
	 width="150px" height="150px" viewBox="0 0 150 150" enable-background="new 0 0 150 150" xml:space="preserve">
<path fill="#EBEBEC" d="M120.793,11.463c-2.81-1.094-5.293-0.652-6.785-0.157C108.281,4.24,96.18,6.704,93.056,7.488
	c-0.479-0.589-1.021-1.123-1.646-1.577c-4.679-3.403-11.412-4.017-16.378-1.485C74.377,4.76,73.795,5.15,73.251,5.57
	c-2.18-2.339-5.292-3.801-8.938-4.021c-6.626-0.391-12.497,3.52-14.266,9.531c-0.585,1.99-1.142,4.777-1.66,7.959
	c-3.457-1.359-9.634-2.475-17.126,1.932c-12.91,7.593-10.576,34.508-8.973,45.729c2.368,16.572,18.969,29.291,26.946,35.403
	l0.87,0.665c3.65,2.81,4.404,6.51,4.486,8.77c-1.622,0.657-2.548,1.121-2.688,1.192c-1.135,0.579-1.849,1.744-1.849,3.019v19.754
	c0,1.004,0.445,1.955,1.214,2.598c0.614,0.514,1.384,0.789,2.172,0.789c0.2,0,0.401-0.018,0.601-0.055
	c10.525-1.896,22.192-2.859,34.678-2.859c19.048,0,33.462,2.283,33.606,2.305c0.982,0.154,1.979-0.123,2.734-0.765
	c0.754-0.644,1.189-1.587,1.189-2.578v-19.188c0-1.401-0.861-2.656-2.168-3.16c-0.266-0.104-0.533-0.188-0.799-0.289
	c0.348-1.643,0.678-3.332,1.02-5.096c1.277-6.593,2.726-14.064,6.119-23.464c7.341-20.325,4.543-44.485-0.523-60.319
	C127.854,17.039,124.791,13.017,120.793,11.463z"/>
<g>
	<path fill="#00A79D" d="M53.531,127.792c-0.605,0.528-1.387,0.845-2.221,0.845c-0.022,0-0.045-0.008-0.068-0.008
		c-0.335,0.131-0.646,0.256-0.923,0.369v13.558c9.847-1.526,20.554-2.298,31.893-2.298c13.837,0,25.104,1.139,30.758,1.846v-12.949
		c-10.574-3.809-21.387-5.738-32.172-5.738C68.532,123.416,58.978,125.916,53.531,127.792z"/>
	<path fill="#FDC175" d="M111.835,28.83c-0.55-0.213-1.061-0.236-1.474-0.197c1.73,7.912-1.535,16.664-1.705,17.111
		c-0.516,1.352-1.801,2.184-3.166,2.184c-0.4,0-0.808-0.072-1.205-0.224c-1.748-0.666-2.625-2.622-1.959-4.37
		c1.083-2.87,3.248-11.39,0.281-16.211c-2.25-3.656-9.568-3.014-13.406-2.234c1.238,6.943-0.734,15.429-1.314,17.675
		c-0.395,1.526-1.768,2.54-3.275,2.54c-0.279,0-0.563-0.035-0.848-0.107c-1.81-0.467-2.9-2.313-2.436-4.124
		c1.646-6.406,2.42-16.374-0.404-18.429c-2.873-2.089-6.996-2.111-9.323-0.926c-1.052,0.535-1.595,1.216-1.647,2.016
		c1.669,10.375,0.528,16.338,0.479,16.59c-0.367,1.835-2.148,3.032-3.985,2.657c-1.834-0.366-3.023-2.149-2.657-3.983
		c0.006-0.037,0.965-5.293-0.584-14.584c-0.703-4.216-4.622-4.776-5.806-4.85c-2.946-0.171-6.335,1.204-7.359,4.684
		c-2.69,9.146-4.93,38.512-4.953,38.808c-0.134,1.778-1.619,3.132-3.373,3.132c-0.085,0-0.171-0.004-0.258-0.01
		c-1.865-0.141-3.264-1.766-3.122-3.631c0.061-0.814,1.044-13.699,2.532-25.221c-0.019-0.014-0.041-0.021-0.06-0.037
		c-0.175-0.12-5.217-3.579-12.618,0.774c-6.312,3.712-8.55,18.994-5.702,38.933c1.977,13.836,17.095,25.419,24.36,30.986
		l0.879,0.675c4.774,3.671,6.425,8.291,6.927,11.862c6.167-1.82,15.144-3.676,26.144-3.676c9.89,0,19.785,1.533,29.514,4.516
		c0.281-1.359,0.555-2.745,0.834-4.188c1.324-6.835,2.826-14.582,6.398-24.478c6.763-18.727,4.122-41.182-0.604-55.953
		C115.592,32.324,113.777,29.586,111.835,28.83z"/>
	<path fill="#5B2F1E" d="M114.289,22.518c-2.809-1.094-5.292-0.652-6.785-0.156c-5.727-7.066-17.827-4.602-20.951-3.818
		c-0.48-0.588-1.021-1.122-1.646-1.576c-4.678-3.404-11.413-4.018-16.378-1.484c-0.654,0.332-1.237,0.723-1.781,1.143
		c-2.18-2.338-5.292-3.801-8.938-4.021c-6.627-0.39-12.497,3.519-14.266,9.531c-0.585,1.989-1.142,4.778-1.66,7.958
		c-3.457-1.359-9.634-2.475-17.127,1.932c-12.909,7.594-10.575,34.508-8.973,45.729c2.368,16.572,18.969,29.291,26.946,35.403
		l0.87,0.666c3.65,2.81,4.404,6.51,4.486,8.769c-1.622,0.658-2.549,1.121-2.688,1.193c-1.135,0.578-1.85,1.744-1.85,3.018v19.754
		c0,1.004,0.445,1.955,1.215,2.599c0.614,0.515,1.384,0.788,2.172,0.788c0.2,0,0.401-0.018,0.601-0.055
		c10.525-1.896,22.191-2.859,34.678-2.859c19.047,0,33.461,2.283,33.605,2.307c0.982,0.153,1.979-0.125,2.734-0.766
		c0.754-0.645,1.19-1.587,1.19-2.578v-19.189c0-1.4-0.862-2.656-2.168-3.16c-0.266-0.103-0.533-0.188-0.8-0.289
		c0.349-1.643,0.678-3.331,1.021-5.096c1.277-6.592,2.726-14.064,6.119-23.463c7.34-20.326,4.542-44.486-0.523-60.319
		C121.35,28.095,118.287,24.072,114.289,22.518z M112.971,142.104c-5.654-0.707-16.921-1.846-30.758-1.846
		c-11.339,0-22.046,0.771-31.893,2.298v-13.558c0.277-0.113,0.587-0.238,0.923-0.369c0.022,0,0.045,0.008,0.068,0.008
		c0.834,0,1.616-0.316,2.221-0.845c5.446-1.876,15.001-4.376,27.268-4.376c10.785,0,21.598,1.93,32.172,5.738V142.104z
		 M117.545,92.492c-3.572,9.896-5.074,17.643-6.398,24.478c-0.279,1.443-0.553,2.829-0.834,4.188
		c-9.729-2.982-19.624-4.516-29.514-4.516c-11,0-19.976,1.855-26.144,3.676c-0.502-3.571-2.153-8.191-6.927-11.862l-0.879-0.675
		c-7.265-5.567-22.384-17.15-24.36-30.986c-2.848-19.938-0.609-35.221,5.702-38.933c7.401-4.354,12.443-0.895,12.618-0.774
		c0.019,0.016,0.041,0.023,0.06,0.037c-1.488,11.521-2.472,24.406-2.532,25.221c-0.142,1.865,1.257,3.49,3.122,3.631
		c0.086,0.006,0.172,0.01,0.258,0.01c1.754,0,3.239-1.354,3.373-3.132c0.022-0.296,2.262-29.662,4.953-38.808
		c1.023-3.479,4.413-4.854,7.359-4.684c1.184,0.073,5.103,0.634,5.806,4.85c1.549,9.291,0.59,14.547,0.584,14.584
		c-0.366,1.834,0.823,3.617,2.657,3.983c1.837,0.375,3.618-0.822,3.985-2.657c0.05-0.252,1.191-6.215-0.479-16.59
		c0.053-0.8,0.595-1.48,1.647-2.016c2.327-1.186,6.45-1.163,9.323,0.926c2.824,2.055,2.05,12.022,0.404,18.429
		c-0.465,1.812,0.626,3.657,2.436,4.124c0.284,0.072,0.568,0.107,0.848,0.107c1.508,0,2.881-1.014,3.275-2.54
		c0.58-2.246,2.553-10.731,1.314-17.675c3.838-0.779,11.156-1.422,13.406,2.234c2.967,4.821,0.802,13.341-0.281,16.211
		c-0.666,1.748,0.211,3.704,1.959,4.37c0.397,0.151,0.805,0.224,1.205,0.224c1.365,0,2.65-0.832,3.166-2.184
		c0.17-0.447,3.436-9.199,1.705-17.111c0.413-0.039,0.924-0.016,1.474,0.197c1.942,0.756,3.757,3.494,5.106,7.709
		C121.667,51.311,124.308,73.766,117.545,92.492z"/>
</g>
</svg>
