solid ascii
  facet normal -1.000000e+000 0.000000e+000 -0.000000e+000
    outer loop
      vertex   -6.264107e+001 2.377010e+001 2.000000e+001
      vertex   -6.264107e+001 2.966858e+001 2.000000e+001
      vertex   -6.264107e+001 2.377010e+001 0.000000e+000
    endloop
  endfacet
  facet normal -1.000000e+000 0.000000e+000 0.000000e+000
    outer loop
      vertex   -6.264107e+001 2.377010e+001 0.000000e+000
      vertex   -6.264107e+001 2.966858e+001 2.000000e+001
      vertex   -6.264107e+001 2.966858e+001 0.000000e+000
    endloop
  endfacet
  facet normal -0.000000e+000 -1.000000e+000 -0.000000e+000
    outer loop
      vertex   -6.264107e+001 2.966858e+001 2.000000e+001
      vertex   -8.564107e+001 2.966858e+001 2.000000e+001
      vertex   -6.264107e+001 2.966858e+001 0.000000e+000
    endloop
  endfacet
  facet normal -0.000000e+000 -1.000000e+000 -0.000000e+000
    outer loop
      vertex   -6.264107e+001 2.966858e+001 0.000000e+000
      vertex   -8.564107e+001 2.966858e+001 2.000000e+001
      vertex   -8.564107e+001 2.966858e+001 0.000000e+000
    endloop
  endfacet
  facet normal 1.000000e+000 0.000000e+000 0.000000e+000
    outer loop
      vertex   -8.564107e+001 2.966858e+001 2.000000e+001
      vertex   -8.564107e+001 2.377010e+001 2.000000e+001
      vertex   -8.564107e+001 2.966858e+001 0.000000e+000
    endloop
  endfacet
  facet normal 1.000000e+000 0.000000e+000 0.000000e+000
    outer loop
      vertex   -8.564107e+001 2.966858e+001 0.000000e+000
      vertex   -8.564107e+001 2.377010e+001 2.000000e+001
      vertex   -8.564107e+001 2.377010e+001 0.000000e+000
    endloop
  endfacet
  facet normal 0.000000e+000 -0.000000e+000 1.000000e+000
    outer loop
      vertex   -8.564107e+001 2.377010e+001 2.000000e+001
      vertex   -8.564107e+001 2.966858e+001 2.000000e+001
      vertex   -8.877057e+001 2.377010e+001 2.000000e+001
    endloop
  endfacet
  facet normal 0.000000e+000 -0.000000e+000 1.000000e+000
    outer loop
      vertex   -8.877057e+001 2.377010e+001 2.000000e+001
      vertex   -8.564107e+001 2.966858e+001 2.000000e+001
      vertex   -8.877057e+001 4.377010e+001 2.000000e+001
    endloop
  endfacet
  facet normal -0.000000e+000 0.000000e+000 1.000000e+000
    outer loop
      vertex   -8.877057e+001 4.377010e+001 2.000000e+001
      vertex   -8.564107e+001 2.966858e+001 2.000000e+001
      vertex   -6.264107e+001 2.966858e+001 2.000000e+001
    endloop
  endfacet
  facet normal -0.000000e+000 0.000000e+000 1.000000e+000
    outer loop
      vertex   -5.377057e+001 4.377010e+001 2.000000e+001
      vertex   -6.264107e+001 2.966858e+001 2.000000e+001
      vertex   -5.467141e+001 2.991838e+001 2.000000e+001
    endloop
  endfacet
  facet normal 0.000000e+000 0.000000e+000 1.000000e+000
    outer loop
      vertex   -3.767141e+001 2.991838e+001 2.000000e+001
      vertex   -5.377057e+001 4.377010e+001 2.000000e+001
      vertex   -5.467141e+001 2.991838e+001 2.000000e+001
    endloop
  endfacet
  facet normal 0.000000e+000 -0.000000e+000 1.000000e+000
    outer loop
      vertex   -3.767141e+001 2.991838e+001 2.000000e+001
      vertex   -1.877057e+001 4.377010e+001 2.000000e+001
      vertex   -5.377057e+001 4.377010e+001 2.000000e+001
    endloop
  endfacet
  facet normal -0.000000e+000 0.000000e+000 1.000000e+000
    outer loop
      vertex   -3.767141e+001 2.991838e+001 2.000000e+001
      vertex   -1.877057e+001 2.377010e+001 2.000000e+001
      vertex   -1.877057e+001 4.377010e+001 2.000000e+001
    endloop
  endfacet
  facet normal -0.000000e+000 0.000000e+000 1.000000e+000
    outer loop
      vertex   -3.767141e+001 2.991838e+001 2.000000e+001
      vertex   -3.767141e+001 2.377010e+001 2.000000e+001
      vertex   -1.877057e+001 2.377010e+001 2.000000e+001
    endloop
  endfacet
  facet normal 0.000000e+000 -0.000000e+000 1.000000e+000
    outer loop
      vertex   -6.264107e+001 2.377010e+001 2.000000e+001
      vertex   -5.467141e+001 2.377010e+001 2.000000e+001
      vertex   -6.264107e+001 2.966858e+001 2.000000e+001
    endloop
  endfacet
  facet normal -0.000000e+000 0.000000e+000 1.000000e+000
    outer loop
      vertex   -6.264107e+001 2.966858e+001 2.000000e+001
      vertex   -5.467141e+001 2.377010e+001 2.000000e+001
      vertex   -5.467141e+001 2.991838e+001 2.000000e+001
    endloop
  endfacet
  facet normal 0.000000e+000 0.000000e+000 1.000000e+000
    outer loop
      vertex   -5.377057e+001 4.377010e+001 2.000000e+001
      vertex   -8.877057e+001 4.377010e+001 2.000000e+001
      vertex   -6.264107e+001 2.966858e+001 2.000000e+001
    endloop
  endfacet
  facet normal 0.000000e+000 -1.000000e+000 0.000000e+000
    outer loop
      vertex   -6.264107e+001 2.377010e+001 2.000000e+001
      vertex   -6.264107e+001 2.377010e+001 0.000000e+000
      vertex   -5.467141e+001 2.377010e+001 2.000000e+001
    endloop
  endfacet
  facet normal 0.000000e+000 -1.000000e+000 -0.000000e+000
    outer loop
      vertex   -5.467141e+001 2.377010e+001 2.000000e+001
      vertex   -6.264107e+001 2.377010e+001 0.000000e+000
      vertex   -5.467141e+001 2.377010e+001 0.000000e+000
    endloop
  endfacet
  facet normal -1.000000e+000 -1.155676e-015 0.000000e+000
    outer loop
      vertex   -3.767141e+001 2.377010e+001 0.000000e+000
      vertex   -3.767141e+001 2.377010e+001 2.000000e+001
      vertex   -3.767141e+001 2.991838e+001 0.000000e+000
    endloop
  endfacet
  facet normal -1.000000e+000 -1.155676e-015 0.000000e+000
    outer loop
      vertex   -3.767141e+001 2.991838e+001 0.000000e+000
      vertex   -3.767141e+001 2.377010e+001 2.000000e+001
      vertex   -3.767141e+001 2.991838e+001 2.000000e+001
    endloop
  endfacet
  facet normal 1.000000e+000 -0.000000e+000 0.000000e+000
    outer loop
      vertex   -5.467141e+001 2.377010e+001 2.000000e+001
      vertex   -5.467141e+001 2.377010e+001 0.000000e+000
      vertex   -5.467141e+001 2.991838e+001 2.000000e+001
    endloop
  endfacet
  facet normal 1.000000e+000 -0.000000e+000 0.000000e+000
    outer loop
      vertex   -5.467141e+001 2.991838e+001 2.000000e+001
      vertex   -5.467141e+001 2.377010e+001 0.000000e+000
      vertex   -5.467141e+001 2.991838e+001 0.000000e+000
    endloop
  endfacet
  facet normal -0.000000e+000 -1.000000e+000 0.000000e+000
    outer loop
      vertex   -3.767141e+001 2.991838e+001 0.000000e+000
      vertex   -3.767141e+001 2.991838e+001 2.000000e+001
      vertex   -5.467141e+001 2.991838e+001 0.000000e+000
    endloop
  endfacet
  facet normal 0.000000e+000 -1.000000e+000 0.000000e+000
    outer loop
      vertex   -5.467141e+001 2.991838e+001 0.000000e+000
      vertex   -3.767141e+001 2.991838e+001 2.000000e+001
      vertex   -5.467141e+001 2.991838e+001 2.000000e+001
    endloop
  endfacet
  facet normal 0.000000e+000 -1.000000e+000 0.000000e+000
    outer loop
      vertex   -3.767141e+001 2.377010e+001 2.000000e+001
      vertex   -3.767141e+001 2.377010e+001 0.000000e+000
      vertex   -1.877057e+001 2.377010e+001 2.000000e+001
    endloop
  endfacet
  facet normal 0.000000e+000 -1.000000e+000 -0.000000e+000
    outer loop
      vertex   -1.877057e+001 2.377010e+001 2.000000e+001
      vertex   -3.767141e+001 2.377010e+001 0.000000e+000
      vertex   -1.877057e+001 2.377010e+001 0.000000e+000
    endloop
  endfacet
  facet normal 0.000000e+000 0.000000e+000 -1.000000e+000
    outer loop
      vertex   -8.564107e+001 2.377010e+001 0.000000e+000
      vertex   -8.877057e+001 2.377010e+001 0.000000e+000
      vertex   -8.564107e+001 2.966858e+001 0.000000e+000
    endloop
  endfacet
  facet normal -0.000000e+000 0.000000e+000 -1.000000e+000
    outer loop
      vertex   -8.564107e+001 2.966858e+001 0.000000e+000
      vertex   -8.877057e+001 2.377010e+001 0.000000e+000
      vertex   -8.877057e+001 4.377010e+001 0.000000e+000
    endloop
  endfacet
  facet normal 0.000000e+000 0.000000e+000 -1.000000e+000
    outer loop
      vertex   -6.264107e+001 2.966858e+001 0.000000e+000
      vertex   -8.877057e+001 4.377010e+001 0.000000e+000
      vertex   -5.377057e+001 4.377010e+001 0.000000e+000
    endloop
  endfacet
  facet normal 0.000000e+000 0.000000e+000 -1.000000e+000
    outer loop
      vertex   -5.467141e+001 2.991838e+001 0.000000e+000
      vertex   -5.377057e+001 4.377010e+001 0.000000e+000
      vertex   -3.767141e+001 2.991838e+001 0.000000e+000
    endloop
  endfacet
  facet normal -0.000000e+000 0.000000e+000 -1.000000e+000
    outer loop
      vertex   -5.467141e+001 2.991838e+001 0.000000e+000
      vertex   -6.264107e+001 2.966858e+001 0.000000e+000
      vertex   -5.377057e+001 4.377010e+001 0.000000e+000
    endloop
  endfacet
  facet normal -0.000000e+000 -0.000000e+000 -1.000000e+000
    outer loop
      vertex   -5.467141e+001 2.991838e+001 0.000000e+000
      vertex   -5.467141e+001 2.377010e+001 0.000000e+000
      vertex   -6.264107e+001 2.966858e+001 0.000000e+000
    endloop
  endfacet
  facet normal -0.000000e+000 -0.000000e+000 -1.000000e+000
    outer loop
      vertex   -6.264107e+001 2.966858e+001 0.000000e+000
      vertex   -5.467141e+001 2.377010e+001 0.000000e+000
      vertex   -6.264107e+001 2.377010e+001 0.000000e+000
    endloop
  endfacet
  facet normal 0.000000e+000 0.000000e+000 -1.000000e+000
    outer loop
      vertex   -8.564107e+001 2.966858e+001 0.000000e+000
      vertex   -8.877057e+001 4.377010e+001 0.000000e+000
      vertex   -6.264107e+001 2.966858e+001 0.000000e+000
    endloop
  endfacet
  facet normal 0.000000e+000 -0.000000e+000 -1.000000e+000
    outer loop
      vertex   -5.377057e+001 4.377010e+001 0.000000e+000
      vertex   -1.877057e+001 4.377010e+001 0.000000e+000
      vertex   -3.767141e+001 2.991838e+001 0.000000e+000
    endloop
  endfacet
  facet normal 0.000000e+000 0.000000e+000 -1.000000e+000
    outer loop
      vertex   -3.767141e+001 2.991838e+001 0.000000e+000
      vertex   -1.877057e+001 4.377010e+001 0.000000e+000
      vertex   -1.877057e+001 2.377010e+001 0.000000e+000
    endloop
  endfacet
  facet normal 0.000000e+000 0.000000e+000 -1.000000e+000
    outer loop
      vertex   -3.767141e+001 2.377010e+001 0.000000e+000
      vertex   -3.767141e+001 2.991838e+001 0.000000e+000
      vertex   -1.877057e+001 2.377010e+001 0.000000e+000
    endloop
  endfacet
  facet normal -0.000000e+000 -1.000000e+000 0.000000e+000
    outer loop
      vertex   -8.564107e+001 2.377010e+001 0.000000e+000
      vertex   -8.564107e+001 2.377010e+001 2.000000e+001
      vertex   -8.877057e+001 2.377010e+001 0.000000e+000
    endloop
  endfacet
  facet normal 0.000000e+000 -1.000000e+000 0.000000e+000
    outer loop
      vertex   -8.877057e+001 2.377010e+001 0.000000e+000
      vertex   -8.564107e+001 2.377010e+001 2.000000e+001
      vertex   -8.877057e+001 2.377010e+001 2.000000e+001
    endloop
  endfacet
  facet normal -1.000000e+000 -0.000000e+000 -0.000000e+000
    outer loop
      vertex   -8.877057e+001 4.377010e+001 2.000000e+001
      vertex   -8.877057e+001 4.377010e+001 0.000000e+000
      vertex   -8.877057e+001 2.377010e+001 2.000000e+001
    endloop
  endfacet
  facet normal -1.000000e+000 -0.000000e+000 -0.000000e+000
    outer loop
      vertex   -8.877057e+001 2.377010e+001 2.000000e+001
      vertex   -8.877057e+001 4.377010e+001 0.000000e+000
      vertex   -8.877057e+001 2.377010e+001 0.000000e+000
    endloop
  endfacet
  facet normal 0.000000e+000 1.000000e+000 0.000000e+000
    outer loop
      vertex   -1.877057e+001 4.377010e+001 2.000000e+001
      vertex   -1.877057e+001 4.377010e+001 0.000000e+000
      vertex   -5.377057e+001 4.377010e+001 2.000000e+001
    endloop
  endfacet
  facet normal 0.000000e+000 1.000000e+000 0.000000e+000
    outer loop
      vertex   -5.377057e+001 4.377010e+001 2.000000e+001
      vertex   -1.877057e+001 4.377010e+001 0.000000e+000
      vertex   -5.377057e+001 4.377010e+001 0.000000e+000
    endloop
  endfacet
  facet normal 0.000000e+000 1.000000e+000 0.000000e+000
    outer loop
      vertex   -8.877057e+001 4.377010e+001 2.000000e+001
      vertex   -5.377057e+001 4.377010e+001 0.000000e+000
      vertex   -8.877057e+001 4.377010e+001 0.000000e+000
    endloop
  endfacet
  facet normal -0.000000e+000 1.000000e+000 0.000000e+000
    outer loop
      vertex   -8.877057e+001 4.377010e+001 2.000000e+001
      vertex   -5.377057e+001 4.377010e+001 2.000000e+001
      vertex   -5.377057e+001 4.377010e+001 0.000000e+000
    endloop
  endfacet
  facet normal 1.000000e+000 -0.000000e+000 0.000000e+000
    outer loop
      vertex   -1.877057e+001 2.377010e+001 2.000000e+001
      vertex   -1.877057e+001 2.377010e+001 0.000000e+000
      vertex   -1.877057e+001 4.377010e+001 2.000000e+001
    endloop
  endfacet
  facet normal 1.000000e+000 -0.000000e+000 0.000000e+000
    outer loop
      vertex   -1.877057e+001 4.377010e+001 2.000000e+001
      vertex   -1.877057e+001 2.377010e+001 0.000000e+000
      vertex   -1.877057e+001 4.377010e+001 0.000000e+000
    endloop
  endfacet
endsolid
